<svg width="18" height="18" viewBox="0 0 18 18" fill="none" xmlns="http://www.w3.org/2000/svg">
<path id="Fill 1172" d="M8.9985 18C8.7715 18 8.5465 17.992 8.3305 17.975C7.85525 17.9311 7.40933 17.7259 7.0668 17.3936C6.72426 17.0612 6.50573 16.6217 6.4475 16.148L6.3765 15.657C6.34194 15.5035 6.27269 15.36 6.17406 15.2375C6.07543 15.1149 5.95003 15.0166 5.8075 14.95C5.6835 14.883 5.5605 14.812 5.4425 14.738C5.2603 14.6194 5.04881 14.5536 4.8315 14.548C4.73371 14.5469 4.63663 14.5645 4.5455 14.6L4.0835 14.784C3.81929 14.8887 3.5377 14.9427 3.2535 14.943C2.92131 14.9485 2.59294 14.8716 2.2977 14.7193C2.00245 14.567 1.74953 14.3439 1.5615 14.07C1.30966 13.6998 1.08571 13.3114 0.891496 12.908C0.692153 12.4746 0.647239 11.986 0.764227 11.5235C0.881215 11.061 1.15305 10.6525 1.5345 10.366L1.9255 10.056C2.04133 9.94993 2.13125 9.81866 2.18829 9.67232C2.24534 9.52598 2.26799 9.36848 2.2545 9.212C2.2545 9.149 2.2545 9.079 2.2545 9C2.2545 8.921 2.2545 8.851 2.2545 8.788C2.26799 8.63152 2.24534 8.47402 2.18829 8.32768C2.13125 8.18134 2.04133 8.05007 1.9255 7.944L1.5345 7.634C1.1532 7.34738 0.881479 6.93889 0.764503 6.47645C0.647527 6.014 0.692341 5.52545 0.891496 5.092C1.08554 4.6885 1.3095 4.30008 1.5615 3.93C1.74953 3.6561 2.00245 3.43303 2.2977 3.2807C2.59294 3.12836 2.92131 3.05151 3.2535 3.057C3.5377 3.05734 3.81929 3.11128 4.0835 3.216L4.5455 3.4C4.63663 3.43545 4.73371 3.4531 4.8315 3.452C5.04881 3.44636 5.2603 3.38059 5.4425 3.262C5.5605 3.188 5.6835 3.116 5.8075 3.05C5.95012 2.98356 6.07559 2.88526 6.17424 2.76269C6.27289 2.64011 6.34208 2.49653 6.3765 2.343L6.4475 1.853C6.50566 1.37908 6.72412 0.939287 7.06662 0.606606C7.40912 0.273924 7.85508 0.0683519 8.3305 0.024C8.5505 0.008 8.7745 0 8.9985 0C9.2225 0 9.4475 0.008 9.6675 0.024C10.1427 0.0681685 10.5885 0.273575 10.9309 0.606104C11.2732 0.938633 11.4915 1.37827 11.5495 1.852L11.6215 2.342C11.6554 2.49558 11.7244 2.63926 11.8229 2.76188C11.9214 2.8845 12.0468 2.98275 12.1895 3.049C12.3085 3.112 12.4285 3.182 12.5555 3.261C12.7377 3.37959 12.9492 3.44536 13.1665 3.451C13.2646 3.45216 13.362 3.43451 13.4535 3.399L13.9145 3.215C14.1787 3.11035 14.4603 3.05641 14.7445 3.056C15.0767 3.0506 15.405 3.12749 15.7002 3.27982C15.9955 3.43214 16.2484 3.65517 16.4365 3.929C16.6892 4.29902 16.9138 4.68744 17.1085 5.091C17.3076 5.52445 17.3525 6.013 17.2355 6.47545C17.1185 6.93789 16.8468 7.34638 16.4655 7.633L16.0735 7.943C15.9577 8.04907 15.8679 8.18037 15.811 8.32673C15.7542 8.47309 15.7317 8.63058 15.7455 8.787C15.7455 8.857 15.7455 8.928 15.7455 8.999C15.7455 9.07 15.7455 9.141 15.7455 9.211C15.7317 9.36742 15.7542 9.52491 15.811 9.67127C15.8679 9.81763 15.9577 9.94893 16.0735 10.055L16.4655 10.365C16.8469 10.6515 17.1188 11.06 17.2358 11.5225C17.3528 11.985 17.3078 12.4736 17.1085 12.907C16.9136 13.3105 16.689 13.6989 16.4365 14.069C16.2484 14.3428 15.9955 14.5659 15.7002 14.7182C15.405 14.8705 15.0767 14.9474 14.7445 14.942C14.4603 14.9416 14.1787 14.8876 13.9145 14.783L13.4535 14.599C13.362 14.5635 13.2646 14.5458 13.1665 14.547C12.9492 14.5526 12.7377 14.6184 12.5555 14.737C12.4275 14.817 12.3085 14.886 12.1895 14.949C12.047 15.0154 11.9216 15.1137 11.8231 15.2363C11.7247 15.3589 11.6557 15.5025 11.6215 15.656L11.5495 16.147C11.4917 16.6207 11.2734 17.0603 10.931 17.3927C10.5886 17.7251 10.1427 17.9302 9.6675 17.974C9.4515 17.992 9.2265 18 8.9985 18ZM4.8255 13.046C5.3243 13.0535 5.81141 13.1981 6.2335 13.464C6.3465 13.533 6.4335 13.584 6.5175 13.628C6.8683 13.8034 7.17277 14.059 7.40614 14.3742C7.6395 14.6894 7.79518 15.0553 7.8605 15.442L7.9315 15.932C7.94171 16.0673 7.99751 16.1952 8.08977 16.2947C8.18204 16.3943 8.30532 16.4596 8.4395 16.48C8.6195 16.493 8.8075 16.5 8.9985 16.5C9.1895 16.5 9.3775 16.493 9.5575 16.48C9.69167 16.4596 9.81495 16.3943 9.90722 16.2947C9.99948 16.1952 10.0553 16.0673 10.0655 15.932L10.1365 15.442C10.202 15.0552 10.3579 14.6893 10.5914 14.3741C10.8249 14.0589 11.1295 13.8033 11.4805 13.628C11.5715 13.579 11.6605 13.528 11.7655 13.464C12.1872 13.198 12.674 13.0534 13.1725 13.046C13.4588 13.0452 13.7425 13.0991 14.0085 13.205L14.4695 13.389C14.5565 13.4246 14.6495 13.4433 14.7435 13.444C14.8315 13.4469 14.9188 13.4284 14.9981 13.39C15.0773 13.3517 15.1461 13.2947 15.1985 13.224C15.4087 12.9157 15.5955 12.5921 15.7575 12.256C15.8081 12.1302 15.8138 11.9909 15.7737 11.8614C15.7337 11.732 15.6503 11.6202 15.5375 11.545L15.1455 11.234C14.8429 10.9848 14.6036 10.6675 14.4472 10.3081C14.2907 9.94864 14.2216 9.55727 14.2455 9.166V9V8.834C14.2217 8.44259 14.2908 8.0511 14.4473 7.69152C14.6037 7.33193 14.8429 7.01445 15.1455 6.765L15.5375 6.455C15.6503 6.37962 15.7338 6.2677 15.7739 6.13804C15.8139 6.00839 15.8081 5.8689 15.7575 5.743C15.5955 5.40686 15.4087 5.08329 15.1985 4.775C15.1461 4.70399 15.0772 4.64678 14.9977 4.60828C14.9183 4.56978 14.8307 4.55116 14.7425 4.554C14.6488 4.55479 14.5562 4.57346 14.4695 4.609L14.0085 4.794C13.7422 4.8998 13.4581 4.95376 13.1715 4.953C12.6733 4.94577 12.1867 4.80112 11.7655 4.535C11.6755 4.481 11.5785 4.424 11.4805 4.37C11.1296 4.19516 10.825 3.9399 10.5914 3.62502C10.3579 3.31014 10.202 2.94454 10.1365 2.558L10.0655 2.068C10.0563 1.93242 10.0008 1.80411 9.90837 1.70453C9.8159 1.60496 9.69203 1.54017 9.5575 1.521C9.3775 1.508 9.1895 1.501 8.9985 1.501C8.8075 1.501 8.6195 1.508 8.4395 1.521C8.30496 1.54017 8.1811 1.60496 8.08862 1.70453C7.99615 1.80411 7.94068 1.93242 7.9315 2.068L7.8605 2.558C7.79544 2.94455 7.63997 3.31026 7.40676 3.62532C7.17355 3.94038 6.86919 4.19588 6.5185 4.371C6.4335 4.416 6.3435 4.471 6.2345 4.536C5.81285 4.80206 5.32601 4.94669 4.8275 4.954C4.5412 4.95422 4.25748 4.89992 3.9915 4.794L3.5315 4.609C3.4448 4.57353 3.35216 4.55487 3.2585 4.554C3.17026 4.55107 3.08264 4.56966 3.00319 4.60816C2.92375 4.64667 2.85487 4.70393 2.8025 4.775C2.592 5.08328 2.40481 5.40685 2.2425 5.743C2.19242 5.86897 2.18693 6.00828 2.22695 6.13779C2.26697 6.26731 2.35009 6.37924 2.4625 6.455L2.8545 6.765C3.15718 7.01434 3.39653 7.33181 3.55296 7.69142C3.70939 8.05103 3.77845 8.44257 3.7545 8.834V9V9.166C3.77853 9.55729 3.70951 9.94871 3.55307 10.3082C3.39663 10.6676 3.15723 10.9849 2.8545 11.234L2.4625 11.545C2.35002 11.6205 2.26683 11.7322 2.22679 11.8616C2.18676 11.991 2.1923 12.1302 2.2425 12.256C2.40465 12.5922 2.59184 12.9158 2.8025 13.224C2.85482 13.2948 2.92357 13.3518 3.00284 13.3902C3.08211 13.4285 3.1695 13.447 3.2575 13.444C3.35149 13.4432 3.44448 13.4245 3.5315 13.389L3.9915 13.205C4.25687 13.0995 4.53992 13.0455 4.8255 13.046ZM8.9985 12.746C8.25665 12.746 7.53146 12.526 6.91469 12.1137C6.29792 11.7015 5.81728 11.1156 5.53357 10.4301C5.24986 9.74468 5.17583 8.99048 5.32085 8.26294C5.46587 7.5354 5.82342 6.86722 6.34826 6.34294C6.87311 5.81865 7.54167 5.46181 8.26936 5.31757C8.99705 5.17333 9.75118 5.24816 10.4363 5.5326C11.1215 5.81704 11.7069 6.29831 12.1185 6.91552C12.53 7.53273 12.7493 8.25815 12.7485 9C12.7474 9.99424 12.352 10.9474 11.649 11.6505C10.9459 12.3535 9.99273 12.7489 8.9985 12.75V12.746ZM8.9985 6.746C8.55366 6.746 8.1188 6.87786 7.74888 7.12492C7.37896 7.37197 7.09057 7.72314 6.92015 8.13404C6.74974 8.54494 6.70495 8.99714 6.79144 9.43348C6.87793 9.86983 7.09183 10.2708 7.4061 10.5856C7.72036 10.9004 8.1209 11.115 8.5571 11.2023C8.99329 11.2895 9.44556 11.2456 9.85677 11.0759C10.268 10.9062 10.6196 10.6184 10.8674 10.2489C11.1151 9.87946 11.2477 9.44484 11.2485 9C11.2477 8.40351 11.0104 7.83167 10.5886 7.40989C10.1668 6.9881 9.59499 6.75079 8.9985 6.75V6.746Z" fill="black" fill-opacity="0.45"/>
</svg>
