<svg width="18" height="18" viewBox="0 0 18 18" fill="none" xmlns="http://www.w3.org/2000/svg">
<path id="Shape" d="M17.4837 15.171C17.4925 15.5339 17.4297 15.8949 17.2989 16.2335C17.1681 16.5721 16.9718 16.8816 16.7213 17.1443C16.4709 17.407 16.1711 17.6178 15.8392 17.7646C15.5072 17.9115 15.1496 17.9914 14.7867 18H5.82771C5.63472 17.9881 5.45425 17.9004 5.32573 17.756C5.1972 17.6115 5.13104 17.4221 5.14171 17.229C5.13104 17.0359 5.1972 16.8465 5.32573 16.702C5.45425 16.5576 5.63472 16.4699 5.82771 16.458H14.7867C15.133 16.4625 15.467 16.3297 15.7156 16.0884C15.9641 15.8472 16.1069 15.5173 16.1127 15.171V2.829C16.1067 2.48287 15.9637 2.15323 15.7152 1.91222C15.4667 1.67121 15.1329 1.53845 14.7867 1.543H5.82771C5.63896 1.52042 5.46504 1.42944 5.33886 1.28726C5.21268 1.14509 5.14299 0.961592 5.14299 0.7715C5.14299 0.581408 5.21268 0.397911 5.33886 0.255737C5.46504 0.113564 5.63896 0.0225773 5.82771 0H14.7867C15.1498 0.0081768 15.5078 0.0878716 15.8401 0.234524C16.1724 0.381176 16.4725 0.591909 16.7233 0.854666C16.9741 1.11742 17.1706 1.42705 17.3016 1.76583C17.4326 2.1046 17.4955 2.46589 17.4867 2.829L17.4837 15.171ZM10.8497 9.823H3.14971L5.94971 12.623C6.02115 12.695 6.0777 12.7804 6.11614 12.8743C6.15457 12.9682 6.17414 13.0687 6.17372 13.1702C6.17331 13.2716 6.15291 13.372 6.1137 13.4656C6.07449 13.5591 6.01724 13.6441 5.94521 13.7155C5.79974 13.8598 5.60291 13.9404 5.39803 13.9395C5.19314 13.9387 4.99699 13.8565 4.85271 13.711L0.738709 9.6C0.666988 9.52831 0.610094 9.44319 0.571277 9.34951C0.532461 9.25582 0.512482 9.15541 0.512482 9.054C0.512482 8.95259 0.532461 8.85218 0.571277 8.75849C0.610094 8.66481 0.666988 8.57969 0.738709 8.508L4.85271 4.392C4.92375 4.31765 5.00892 4.25823 5.10323 4.21725C5.19755 4.17627 5.2991 4.15454 5.40192 4.15335C5.50475 4.15215 5.60678 4.17151 5.70202 4.21029C5.79726 4.24906 5.88379 4.30648 5.95654 4.37916C6.02929 4.45184 6.08678 4.53832 6.12565 4.63352C6.16451 4.72873 6.18396 4.83074 6.18286 4.93357C6.18176 5.0364 6.16012 5.13796 6.11923 5.23232C6.07833 5.32667 6.019 5.4119 5.94471 5.483L3.14471 8.283H10.8447C11.1007 8.283 11.3077 8.629 11.3077 9.054C11.3077 9.479 11.1057 9.823 10.8497 9.823Z" fill="black" fill-opacity="0.45"/>
</svg>
