<svg width="20" height="20" viewBox="0 0 6 5" fill="none" xmlns="http://www.w3.org/2000/svg">
<g id="Group 218">
<path id="Vector" d="M5.03699 2.67838C4.84318 2.27007 4.61254 1.93706 4.34507 1.67937L4.06455 1.95989C4.2933 2.17849 4.49255 2.46447 4.66484 2.82063C4.20613 3.77002 3.55501 4.221 2.66516 4.221C2.39806 4.221 2.15204 4.17987 1.9271 4.09762L1.62315 4.40156C1.93557 4.54583 2.28291 4.61796 2.66516 4.61796C3.72482 4.61796 4.51543 4.06608 5.03699 2.96232C5.05795 2.91793 5.06883 2.86944 5.06883 2.82035C5.06883 2.77126 5.05795 2.72277 5.03699 2.67838ZM4.68651 0.910597L4.45147 0.675289C4.44738 0.671188 4.44251 0.667935 4.43716 0.665716C4.4318 0.663496 4.42606 0.662354 4.42027 0.662354C4.41447 0.662354 4.40873 0.663496 4.40338 0.665716C4.39802 0.667935 4.39316 0.671188 4.38906 0.675289L3.78607 1.278C3.45362 1.10819 3.07998 1.02329 2.66516 1.02329C1.60551 1.02329 0.8149 1.57517 0.293342 2.67893C0.272378 2.72332 0.261505 2.77181 0.261505 2.8209C0.261505 2.86999 0.272378 2.91848 0.293342 2.96287C0.501708 3.40173 0.752563 3.75349 1.04591 4.01817L0.46249 4.60142C0.454225 4.60969 0.449582 4.62091 0.449582 4.6326C0.449582 4.64429 0.454225 4.65551 0.46249 4.66378L0.697853 4.89914C0.706123 4.9074 0.717338 4.91205 0.72903 4.91205C0.740723 4.91205 0.751937 4.9074 0.760208 4.89914L4.68651 0.973008C4.69061 0.968911 4.69386 0.964047 4.69608 0.958692C4.6983 0.953338 4.69944 0.947599 4.69944 0.941802C4.69944 0.936006 4.6983 0.930267 4.69608 0.924912C4.69386 0.919558 4.69061 0.914693 4.68651 0.910597ZM0.66549 2.82063C1.12475 1.87123 1.77587 1.42025 2.66516 1.42025C2.96586 1.42025 3.23926 1.47185 3.48731 1.57677L3.09972 1.96435C2.91617 1.86642 2.70599 1.83007 2.50021 1.86067C2.29442 1.89128 2.10392 1.98721 1.95681 2.13432C1.8097 2.28144 1.71376 2.47194 1.68316 2.67772C1.65256 2.88351 1.6889 3.09368 1.78684 3.27724L1.32692 3.73716C1.07237 3.51249 0.852942 3.2081 0.66549 2.82063ZM2.02562 2.82063C2.02572 2.72341 2.04875 2.62758 2.09283 2.54093C2.13692 2.45429 2.20083 2.37926 2.27936 2.32195C2.35789 2.26464 2.44884 2.22667 2.5448 2.21111C2.64077 2.19555 2.73905 2.20285 2.83167 2.23241L2.0549 3.00918C2.03543 2.94823 2.02555 2.88461 2.02562 2.82063Z" fill="black" fill-opacity="0.44"/>
<path id="Vector_2" d="M2.64307 3.43814C2.624 3.43814 2.6052 3.43726 2.58656 3.43555L2.29535 3.72677C2.4705 3.79384 2.66133 3.80875 2.84478 3.76968C3.02822 3.73062 3.19642 3.63925 3.32904 3.50663C3.46167 3.374 3.55303 3.2058 3.5921 3.02236C3.63117 2.83892 3.61626 2.64808 3.54918 2.47293L3.25797 2.76414C3.25968 2.78278 3.26056 2.80158 3.26056 2.82065C3.26061 2.90176 3.24466 2.98207 3.21365 3.05701C3.18263 3.13195 3.13715 3.20004 3.0798 3.25738C3.02245 3.31473 2.95436 3.36021 2.87943 3.39123C2.80449 3.42225 2.72418 3.43819 2.64307 3.43814Z" fill="black" fill-opacity="0.44"/>
</g>
</svg>
