<svg width="20" height="20" viewBox="0 0 7 7" fill="none" xmlns="http://www.w3.org/2000/svg">
<g id="person_24px">
<path id="icon/social/person_24px" fill-rule="evenodd" clip-rule="evenodd" d="M3.66514 1.93777C3.13393 1.93777 2.70368 2.38287 2.70368 2.93239C2.70368 3.48192 3.13393 3.92701 3.66514 3.92701C4.19635 3.92701 4.62661 3.48192 4.62661 2.93239C4.62661 2.38287 4.19635 1.93777 3.66514 1.93777ZM4.14585 2.93242C4.14585 2.6589 3.92952 2.43511 3.66511 2.43511C3.40071 2.43511 3.18438 2.6589 3.18438 2.93242C3.18438 3.20594 3.40071 3.42973 3.66511 3.42973C3.92952 3.42973 4.14585 3.20594 4.14585 2.93242ZM5.10732 5.41893C5.05924 5.24239 4.31411 4.92163 3.66512 4.92163C3.01853 4.92163 2.27821 5.2399 2.22292 5.41893H5.10732ZM1.74222 5.41894C1.74222 4.75751 3.02337 4.42432 3.66515 4.42432C4.30693 4.42432 5.58808 4.75751 5.58808 5.41894V5.91625H1.74222V5.41894Z" fill="black" fill-opacity="0.44"/>
</g>
</svg>
